<svg width="40" height="40" viewBox="0 0 40 40" fill="none" xmlns="http://www.w3.org/2000/svg">
<rect width="40" height="40" rx="20" fill="#F3F3F3"/>
<path d="M14.0146 15.0897C14.1336 14.1483 15.3571 12.8689 16.328 13.0109L16.3264 13.0093C17.2714 13.1889 18.0194 14.8152 18.4411 15.5465C18.74 16.0771 18.5459 16.6147 18.2672 16.8415C17.8911 17.1446 17.3031 17.5628 17.4265 17.9827C17.6458 18.7292 20.25 21.3333 21.5308 22.0736C22.0156 22.3539 22.3672 21.6148 22.6674 21.2361C22.8855 20.9449 23.4235 20.7708 23.9529 21.0583C24.7435 21.5187 25.4883 22.0539 26.1771 22.6562C26.521 22.9437 26.6018 23.3686 26.3634 23.8177C25.9436 24.6086 24.7295 25.6517 23.8481 25.4397C22.3088 25.0696 16.0833 22.6562 14.0837 15.6646C13.9712 15.3338 13.9995 15.2088 14.0146 15.0897Z" fill="#996A24"/>
<path fill-rule="evenodd" clip-rule="evenodd" d="M20.4583 29.9167C19.1837 29.9167 18.4785 29.7799 17.3333 29.3958L15.14 30.4925C13.7548 31.1851 12.125 30.1778 12.125 28.6291V26.2708C9.88182 24.1792 9 21.7674 9 18.4583C9 12.1301 14.1301 7 20.4583 7C26.7866 7 31.9167 12.1301 31.9167 18.4583C31.9167 24.7866 26.7866 29.9167 20.4583 29.9167ZM14.2083 25.3649L13.5458 24.7471C11.803 23.1221 11.0833 21.3053 11.0833 18.4583C11.0833 13.2807 15.2807 9.08333 20.4583 9.08333C25.636 9.08333 29.8333 13.2807 29.8333 18.4583C29.8333 23.636 25.636 27.8333 20.4583 27.8333C19.4316 27.8333 18.95 27.7406 17.9958 27.4206L17.1755 27.1455L14.2083 28.6291V25.3649Z" fill="#996A24"/>
</svg>
