<svg width="71" height="70" viewBox="0 0 71 70" fill="none" xmlns="http://www.w3.org/2000/svg">
<g clip-path="url(#clip0_10_93)">
<g clip-path="url(#clip1_10_93)">
<g clip-path="url(#clip2_10_93)">
<path d="M70.5 35C70.5 15.67 54.83 0 35.5 0C16.17 0 0.5 15.67 0.5 35C0.5 54.33 16.17 70 35.5 70C54.83 70 70.5 54.33 70.5 35Z" fill="black" fill-opacity="0.07"/>
<path d="M54.1469 40.692V56.875H13.625V51.2297H25.2136V46.0863H35.9974V40.692H54.1469ZM50.2656 14.4896C49.6964 14.9334 48.7853 14.9334 48.2159 14.4896C48.1306 14.4231 48.0451 14.3564 47.9883 14.2677C47.5043 13.5798 46.565 13.1361 45.4834 13.1361C43.8892 13.1361 42.6082 14.1346 42.6082 15.3771C42.6082 16.6196 43.8892 17.618 45.4834 17.618C48.0169 17.618 50.095 16.1536 50.465 14.2677C50.408 14.3564 50.3509 14.4229 50.2656 14.4896ZM57.012 13.4245C56.5281 13.0472 55.7311 13.0472 55.2187 13.4245L49.6108 17.7955C49.2408 18.0618 48.7568 18.2392 48.2159 18.2836H42.7789C42.238 18.2614 41.754 18.0841 41.384 17.7955L35.7761 13.4245C35.292 13.0252 34.4951 13.0252 34.011 13.4245C33.5271 13.8238 33.5271 14.4229 34.011 14.8222L41.5261 20.6797L41.5547 21.079V38.6738C41.5547 39.4503 42.3516 40.0715 43.348 40.0715C44.3442 40.0715 45.1413 39.4503 45.1413 38.6738V28.845C45.1413 28.6896 45.3121 28.5566 45.5112 28.5566C45.7104 28.5566 45.8812 28.6898 45.8812 28.845V38.6741C45.8812 39.4507 46.6781 40.0718 47.6745 40.0718C48.6708 40.0718 49.4678 39.4507 49.4678 38.6741V21.0794L49.4963 20.68L57.0114 14.8226C57.4961 14.4229 57.4961 13.8017 57.012 13.4245ZM32.9152 33.9913L25.3123 35.5788L27.1951 37.0464L20.042 42.6215H13.625V44.6063H21.0969L28.9955 38.4497L30.8786 39.9173L32.9152 33.9913Z" fill="#C6811B"/>
</g>
</g>
</g>
<defs>
<clipPath id="clip0_10_93">
<rect width="70" height="70" fill="white" transform="translate(0.5)"/>
</clipPath>
<clipPath id="clip1_10_93">
<rect width="70" height="70" fill="white" transform="translate(0.5)"/>
</clipPath>
<clipPath id="clip2_10_93">
<rect width="70" height="70" fill="white" transform="translate(0.5)"/>
</clipPath>
</defs>
</svg>
