<svg width="71" height="70" viewBox="0 0 71 70" fill="none" xmlns="http://www.w3.org/2000/svg">
<g clip-path="url(#clip0_10_75)">
<g clip-path="url(#clip1_10_75)">
<g clip-path="url(#clip2_10_75)">
<path d="M70.5 35C70.5 15.67 54.83 0 35.5 0C16.17 0 0.5 15.67 0.5 35C0.5 54.33 16.17 70 35.5 70C54.83 70 70.5 54.33 70.5 35Z" fill="black" fill-opacity="0.07"/>
<mask id="mask0_10_75" style="mask-type:luminance" maskUnits="userSpaceOnUse" x="13" y="13" width="45" height="44">
<path d="M57.375 13.125H13.625V56.875H57.375V13.125Z" fill="white"/>
</mask>
<g mask="url(#mask0_10_75)">
<path d="M28.2083 32.7394C27.8599 32.7394 27.5076 32.7394 27.151 32.7394C25.7082 32.6873 24.2701 32.9322 22.9258 33.4591C21.5816 33.9858 20.3599 34.7833 19.3368 35.8019L19.0452 36.1422V46.2047H24.0034V40.4929L24.6719 39.7394L24.9757 39.387C26.5579 37.7616 28.5277 36.5655 30.6996 35.9113C29.6122 35.0839 28.7546 33.992 28.2083 32.7394Z" fill="#C6811B"/>
<path d="M51.7118 35.7655C50.6886 34.747 49.467 33.9495 48.1228 33.4227C46.7786 32.8959 45.3404 32.6509 43.8976 32.703C43.4551 32.7044 43.0129 32.7287 42.5729 32.776C42.0164 33.9511 41.1823 34.973 40.1423 35.7535C42.4611 36.3949 44.5616 37.6552 46.2188 39.3992L46.5226 39.7395L47.1788 40.493V46.217H51.967V36.1058L51.7118 35.7655Z" fill="#C6811B"/>
<path d="M27.1146 30.3698C27.2483 30.3698 27.3576 30.3698 27.4913 30.3698C27.3163 28.8668 27.58 27.3453 28.2507 25.9888C28.9213 24.6324 29.9702 23.4991 31.2708 22.7257C30.7994 22.0055 30.149 21.42 29.3833 21.0266C28.6176 20.6333 27.7629 20.4455 26.9028 20.4818C26.0427 20.5181 25.2068 20.7771 24.477 21.2334C23.747 21.6898 23.1482 22.3278 22.739 23.0852C22.3298 23.8425 22.1244 24.6932 22.1427 25.5538C22.161 26.4144 22.4026 27.2556 22.8437 27.9948C23.2848 28.734 23.9102 29.3459 24.6589 29.7708C25.4076 30.1957 26.2537 30.4188 27.1146 30.4183V30.3698Z" fill="#C6811B"/>
<path d="M43.3143 29.4582C43.329 29.7375 43.329 30.0175 43.3143 30.2968C43.5474 30.3338 43.783 30.3541 44.0191 30.3576H44.25C45.107 30.3118 45.9376 30.045 46.661 29.583C47.3842 29.121 47.9756 28.4796 48.3774 27.7213C48.7792 26.9629 48.9778 26.1134 48.9539 25.2554C48.9299 24.3976 48.6843 23.5605 48.2408 22.8256C47.7973 22.0909 47.1711 21.4835 46.4232 21.0625C45.6753 20.6416 44.8311 20.4215 43.9729 20.4236C43.1146 20.4258 42.2715 20.6501 41.5258 21.0749C40.7799 21.4995 40.1568 22.1101 39.717 22.8471C40.8169 23.5653 41.7214 24.5452 42.3492 25.6991C42.977 26.8529 43.3087 28.1446 43.3143 29.4582Z" fill="#C6811B"/>
<path d="M35.3419 34.9026C38.3421 34.9026 40.7743 32.4705 40.7743 29.4703C40.7743 26.4701 38.3421 24.0381 35.3419 24.0381C32.3418 24.0381 29.9097 26.4701 29.9097 29.4703C29.9097 32.4705 32.3418 34.9026 35.3419 34.9026Z" fill="#C6811B"/>
<path d="M35.6337 37.7949C34.0466 37.7309 32.4629 37.9886 30.978 38.5524C29.4931 39.1164 28.1376 39.9748 26.9931 41.0762L26.6892 41.4165V49.1092C26.694 49.3598 26.748 49.607 26.8484 49.8366C26.9486 50.0663 27.0932 50.274 27.2738 50.4478C27.4543 50.6216 27.6674 50.7581 27.9007 50.8495C28.134 50.941 28.3831 50.9856 28.6337 50.9807H42.5972C42.8478 50.9856 43.0969 50.941 43.3302 50.8495C43.5636 50.7581 43.7766 50.6216 43.9572 50.4478C44.1378 50.274 44.2823 50.0663 44.3826 49.8366C44.4829 49.607 44.5369 49.3598 44.5417 49.1092V41.4408L44.25 41.0762C43.1129 39.9714 41.7621 39.1105 40.2805 38.5463C38.7989 37.9821 37.2176 37.7264 35.6337 37.7949Z" fill="#C6811B"/>
</g>
</g>
</g>
</g>
<defs>
<clipPath id="clip0_10_75">
<rect width="70" height="70" fill="white" transform="translate(0.5)"/>
</clipPath>
<clipPath id="clip1_10_75">
<rect width="70" height="70" fill="white" transform="translate(0.5)"/>
</clipPath>
<clipPath id="clip2_10_75">
<rect width="70" height="70" fill="white" transform="translate(0.5)"/>
</clipPath>
</defs>
</svg>
